<svg width="83" height="40" viewBox="0 0 83 40" fill="none" xmlns="http://www.w3.org/2000/svg">
<path d="M22.8945 15.488H15.9185V13.824H22.8945V15.488ZM24.1905 11.168H22.8945V12.8H15.9185V11.168H14.6225V16.528H24.1905V11.168ZM25.8865 18.928V17.856H12.8945V18.928H18.7345V20.608H14.3505V21.664H22.9745V25.2H24.2865V20.608H20.0465V18.928H25.8865ZM36.0933 17.84C34.0133 17.104 32.6053 15.296 32.6053 13.456V12.88H35.7573V11.808H28.0933V12.88H31.2933V13.456C31.2933 15.488 29.8053 17.408 27.6773 18.16L28.3653 19.2C30.0453 18.576 31.3573 17.264 31.9653 15.616C32.6053 17.104 33.8373 18.288 35.4373 18.864L36.0933 17.84ZM29.8533 21.264H38.1253V25.2H39.4533V20.208H29.8533V21.264ZM38.1253 10.832V14.576H35.3253V15.648H38.1253V19.424H39.4533V10.832H38.1253ZM52.332 15.488H45.356V13.824H52.332V15.488ZM53.628 11.168H52.332V12.8H45.356V11.168H44.06V16.528H53.628V11.168ZM55.324 18.928V17.856H42.332V18.928H48.172V20.608H43.788V21.664H52.412V25.2H53.724V20.608H49.484V18.928H55.324ZM65.5308 17.84C63.4508 17.104 62.0428 15.296 62.0428 13.456V12.88H65.1948V11.808H57.5308V12.88H60.7308V13.456C60.7308 15.488 59.2428 17.408 57.1148 18.16L57.8028 19.2C59.4828 18.576 60.7948 17.264 61.4028 15.616C62.0428 17.104 63.2748 18.288 64.8748 18.864L65.5308 17.84ZM59.2908 21.264H67.5628V25.2H68.8908V20.208H59.2908V21.264ZM67.5628 10.832V14.576H64.7628V15.648H67.5628V19.424H68.8908V10.832H67.5628Z" fill="black"/>
<rect x="0.5" y="6.5" width="76" height="33" stroke="black"/>
<rect x="6.5" y="0.5" width="76" height="33" stroke="black"/>
<rect x="0.5" y="0.5" width="4" height="4" fill="#F47171" stroke="black"/>
<rect x="78.5" y="35.5" width="4" height="4" fill="#2AC8A2" stroke="black"/>
<rect x="64" y="4" width="15" height="7" fill="white"/>
<rect x="4" y="29" width="15" height="7" fill="white"/>
</svg>
